# xmcd CD database file
#
# Track frame offsets:
#	150
#	19670
#	24155
#	40255
#	48857
#	68592
#	96955
#	117004
#	137331
#	149957
#
# Disc length: 2214 seconds
#
# Revision: 0
# Processed by: cddbd v1.5.2PL0 Copyright (c) Steve Scherf et al.
# Submitted via: CDex 1.70beta3
#
DISCID=7e08a40a
DTITLE=Art Pepper - Pepper Original Quartet 1952
DYEAR=1952
DGENRE=Jazz
TTITLE0=Suzy the Poodle
TTITLE1=I Wish on the Moon
TTITLE2=Tenderly
TTITLE3=Everything Happens to Me
TTITLE4=Tickle Too
TTITLE5=Bunker Is Not Banker
TTITLE6=Joe's Steps
TTITLE7=Move
TTITLE8=Where or When
TTITLE9=Over the Rainbow
EXTD=YEAR: 1952
EXTT0=
EXTT1=
EXTT2=
EXTT3=
EXTT4=
EXTT5=
EXTT6=
EXTT7=
EXTT8=
EXTT9=
PLAYORDER=
